<svg id="Capa_1" enable-background="new 0 0 512 512" height="512" viewBox="0 0 512 512" width="512" xmlns="http://www.w3.org/2000/svg"><g><path d="m477.168 344.817-48-88c-2.628-4.819-7.679-7.817-13.168-7.817h-50.027c-2.743-20.033-10.945-38.958-23.623-54.687 2.283-2.169 4.409-4.431 6.372-6.78 6.101 2.285 12.596 3.467 19.277 3.467 30.327 0 55-24.673 55-55 0-29.354-24-44.118-24-80 0-32.448-23.131-56-55-56-12.41 0-24.152 3.607-33.635 10.123-14.7-6.714-32.889-10.123-54.365-10.123-19.98 0-38.026 3.774-53.08 11.019-9.668-7.092-21.848-11.019-34.92-11.019-31.869 0-55 23.552-55 56 0 35.946-24 50.616-24 80 0 30.327 24.673 55 55 55 6.681 0 13.177-1.182 19.277-3.467 1.964 2.35 4.09 4.611 6.372 6.78-12.678 15.729-20.88 34.653-23.623 54.687h-50.026c-5.489 0-10.54 2.998-13.168 7.817l-48 88c-5.442 9.977 1.789 22.183 13.168 22.183h33v130c0 8.284 6.716 15 15 15h320c8.284 0 15-6.716 15-15v-130h33c11.365 0 18.618-12.193 13.169-22.183zm-283.71-169.459c-12.076-9.812-18.459-23.422-18.459-39.358 0-6.831 1.709-10.142 4.812-16.149 4.722-9.144 11.188-21.666 11.188-47.851 0-13.958 8.52-23.159 15.667-28.42 11.059-8.141 26.982-12.875 45.168-13.503-1.714 5.772-2.618 11.801-2.618 17.923 0 34.738 28.262 63 63 63 5.074 0 10.1-.609 14.975-1.8 1.657 4.178 3.424 7.604 4.997 10.65 3.103 6.009 4.812 9.318 4.812 16.149 0 15.937-6.383 29.547-18.459 39.358-14.205 11.542-35.832 17.643-62.542 17.643s-48.336-6.101-62.541-17.642zm127.541-103.358c0 2.733.074 5.309.206 7.756-2.906.82-5.929 1.244-8.989 1.244-18.196 0-33-14.804-33-33 0-5.398 1.328-10.663 3.809-15.367 19.487 4.237 37.974 14.745 37.974 39.367zm48-16c0 42.874 24 62.447 24 80 0 13.785-11.215 25-25 25-1.572 0-3.117-.16-4.63-.441 2.42-7.853 3.63-16.106 3.63-24.559 0-14.12-4.333-22.511-8.156-29.914-4.034-7.812-7.844-15.189-7.844-34.086 0-15.892-4.7-29.924-13.702-41.315 2.142-.445 4.387-.685 6.702-.685 15.421 0 25 9.963 25 26zm-225 105c-13.785 0-25-11.215-25-25 0-17.603 24-37.088 24-80 0-16.037 9.58-26 25-26 2.912 0 5.703.366 8.308 1.053-9.96 11.663-15.308 25.765-15.308 40.947 0 18.896-3.81 26.274-7.844 34.086-3.823 7.403-8.156 15.794-8.156 29.914 0 8.451 1.21 16.706 3.63 24.559-1.513.281-3.058.441-4.63.441zm112 62c24.549 0 44.957-4.389 61.294-11.932 9.341 10.829 15.651 23.938 18.297 37.932h-159.182c2.647-13.993 8.957-27.103 18.297-37.931 16.336 7.542 36.744 11.931 61.294 11.931zm-182.731 114 31.636-58h125.828l-31.636 58zm167.731 145h-130v-115h97c5.489 0 10.54-2.998 13.168-7.817l19.832-36.357zm160 0h-130v-159.175l19.832 36.357c2.628 4.819 7.679 7.817 13.168 7.817h97zm-88.095-145-31.636-58h125.828l31.636 58z"/><path d="m262.707 157.416 16-8c7.41-3.704 10.413-12.715 6.708-20.124-3.705-7.411-12.716-10.413-20.125-6.708l-9.292 4.646-9.292-4.646c-7.409-3.706-16.42-.701-20.125 6.708s-.701 16.42 6.708 20.124l16 8c4.242 2.12 9.21 2.105 13.418 0z"/></g></svg>